#!OML:ASF H:\charlestonDancing\Project 1\Capture day 1\Session 1\femaleDancer.ASF
:FULLY-SPECIFIED
:DEGREES
48
root 29.319 17.3645 1.84791 -36.2154 -104.456 35.8801
lowerback 10.3804 3.11628 13.5527
upperback 2.64081 5.41838 0.733189
thorax -1.80332 2.636 -7.3952
lowerneck 2.83904 1.39823 5.24264
upperneck -4.08295 1.93691 -3.73469
head -1.69036 0.962855 -2.1414
rclavicle -1.32471e-014 1.33186e-014
rhumerus -12.8234 20.2467 -88.2474
rradius 49.7452
rwrist 14.4122
rhand -18.3511 -36.7971
rfingers 7.12502
rthumb 7.93151 -66.6283
lclavicle -1.32471e-014 1.33186e-014
lhumerus -57.556 15.3355 68.9989
lradius 20.4557
lwrist -18.8902
lhand -19.5371 14.4239
lfingers 7.12502
lthumb 6.78672 44.2951
rfemur 20.0473 0.0127391 32.0665
rtibia -2.22639e-014
rfoot -13.7639 10.1601
rtoes -15.6107
lfemur -33.9437 4.37741 -13.604
ltibia 30.6833
lfoot -8.99023 -0.917402
ltoes -15.6728
49
root 28.9531 17.3159 1.8344 -35.8118 -104.864 35.2979
lowerback 10.2071 3.09549 13.7723
upperback 2.73195 5.37374 0.74764
thorax -1.59831 2.63116 -7.47803
lowerneck 3.13678 1.31269 4.78882
upperneck -4.38467 1.8196 -3.51389
head -1.84956 0.90667 -1.99395
rclavicle 2.22515e-014 2.41026e-015
rhumerus -12.3701 21.0648 -88.5053
rradius 48.6398
rwrist 14.7329
rhand -18.0097 -37.0177
rfingers 7.12502
rthumb 8.26101 -66.8362
lclavicle 2.22515e-014 2.41026e-015
lhumerus -57.7609 17.0305 67.4653
lradius 19.8616
lwrist -20.2494
lhand -20.2862 12.9783
lfingers 7.12502
lthumb 6.06354 42.8715
rfemur 21.5304 0.98438 32.1722
rtibia -6.67916e-014
rfoot -13.9188 9.93304
rtoes -19.1738
lfemur -34.196 5.02409 -13.9003
ltibia 29.8201
lfoot -9.36886 -1.53093
ltoes -17.4891
50
root 28.5719 17.2613 1.81865 -35.359 -104.985 34.7816
lowerback 9.93416 3.0561 13.7703
upperback 2.67463 5.28744 0.683358
thorax -1.52259 2.59439 -7.52054
lowerneck 3.42611 1.29008 4.68709
upperneck -4.58545 1.79588 -3.47301
head -1.96873 0.896381 -1.96964
rclavicle -2.81342e-014 1.75427e-014
rhumerus -12.384 21.6735 -88.9546
rradius 47.347
rwrist 15.2746
rhand -17.6823 -37.2068
rfingers 7.12502
rthumb 8.57693 -67.0126
lclavicle -2.81342e-014 1.75427e-014
lhumerus -58.0362 18.2289 66.253
lradius 19.4731
lwrist -20.95
lhand -21.3893 12.1614
lfingers 7.12502
lthumb 4.99845 42.0825
rfemur 22.9486 1.75329 32.101
rtibia 9.54166e-015
rfoot -13.5458 10.0342
rtoes -21.2363
lfemur -34.1872 5.29056 -14.3769
ltibia 30.1005
lfoot -10.1366 -1.60026
ltoes -17.6351
51
root 28.179 17.1889 1.79513 -34.7581 -104.899 34.079
lowerback 9.69329 3.05368 13.5002
upperback 2.52402 5.2428 0.529964
thorax -1.5734 2.56845 -7.52121
lowerneck 3.70133 1.08402 4.69694
upperneck -4.58345 1.54538 -3.24978
head -2.02959 0.768126 -1.89631
rclavicle -3.50482e-014 1.25234e-014
rhumerus -12.8321 21.7748 -89.5954
rradius 45.8959
rwrist 15.8392
rhand -17.1448 -37.4594
rfingers 7.12502
rthumb 9.0956 -67.2433
lclavicle -3.50482e-014 1.25234e-014
lhumerus -58.144 18.877 65.4121
lradius 19.3475
lwrist -20.739
lhand -22.1379 12.2019
lfingers 7.12502
lthumb 4.27558 42.1387
rfemur 24.4656 2.3813 31.8682
rtibia -5.08889e-014
rfoot -12.6349 10.3859
rtoes -21.9419
lfemur -33.9254 5.25856 -15.0098
ltibia 31.2824
lfoot -10.1756 -0.887977
ltoes -18.8124
52
root 27.7747 17.1186 1.76254 -34.464 -104.616 33.604
lowerback 9.56904 2.98292 12.994
upperback 2.35843 5.10574 0.396785
thorax -1.74936 2.48731 -7.37355
lowerneck 3.67997 0.749846 4.49471
upperneck -4.33234 1.11356 -2.77504
head -1.96195 0.546696 -1.68984
rclavicle -2.47487e-014 1.27222e-014
rhumerus -13.6751 21.5233 -90.3168
rradius 44.4601
rwrist 16.5549
rhand -15.8676 -37.6121
rfingers 7.12502
rthumb 10.3279 -67.3385
lclavicle -2.47487e-014 1.27222e-014
lhumerus -58.0552 19.4008 64.8806
lradius 19.441
lwrist -19.7233
lhand -22.3843 12.3811
lfingers 7.12502
lthumb 4.03769 42.3226
rfemur 26.1064 2.79546 31.5975
rtibia 3.81667e-014
rfoot -11.8166 10.6918
rtoes -22.9892
lfemur -33.3295 5.17575 -15.7336
ltibia 33.1007
lfoot -9.75263 -0.229166
ltoes -21.3599
53
root 27.358 17.0588 1.72317 -34.4307 -104.107 33.4472
lowerback 9.45603 2.80272 12.2514
upperback 2.17736 4.80536 0.311303
thorax -2.00555 2.32036 -7.03266
lowerneck 3.25141 0.501859 4.07309
upperneck -4.00049 0.774161 -2.12199
head -1.78806 0.369269 -1.38644
rclavicle -9.91439e-015 -2.10712e-014
rhumerus -14.9646 21.1438 -91.0718
rradius 43.2319
rwrist 17.5014
rhand -14.4239 -37.5918
rfingers 7.12502
rthumb 11.7203 -67.2439
lclavicle -9.91439e-015 -2.10712e-014
lhumerus -57.8404 20.0217 64.536
lradius 19.5974
lwrist -18.5803
lhand -22.6332 12.2659
lfingers 7.12502
lthumb 3.79729 42.2118
rfemur 27.6824 2.98976 31.2775
rtibia 4.77083e-014
rfoot -10.8323 11.0595
rtoes -25.168
lfemur -32.8683 5.4271 -16.7533
ltibia 35.1314
lfoot -8.64352 0.805881
ltoes -31.0526
54
root 26.9322 17.0498 1.68208 -33.988 -103.342 32.9892
lowerback 9.20961 2.62079 11.31
upperback 1.9515 4.47057 0.121264
thorax -2.24128 2.14157 -6.67896
lowerneck 3.14368 0.215131 3.79399
upperneck -4.14789 0.396027 -1.55013
head -1.82615 0.16954 -1.1455
rclavicle 2.55438e-014 1.11319e-014
rhumerus -16.6233 20.2608 -91.9436
rradius 41.9564
rwrist 18.4793
rhand -13.8973 -37.0461
rfingers 7.12502
rthumb 12.2281 -66.6687
lclavicle 2.55438e-014 1.11319e-014
lhumerus -57.2802 20.3714 64.4314
lradius 19.6788
lwrist -17.6093
lhand -22.9091 12.307
lfingers 7.12502
lthumb 3.53086 42.2575
rfemur 29.021 3.05062 30.7122
rtibia 3.18055e-015
rfoot -8.99265 11.7491
rtoes -28.5106
lfemur -32.9951 4.2161 -17.2506
ltibia 37.1426
lfoot -6.77346 1.78009
ltoes -23.5396
55
root 26.508 17.0425 1.64295 -32.8031 -102.329 31.7891
lowerback 8.92447 2.4896 10.199
upperback 1.74457 4.17987 -0.200658
thorax -2.41889 1.99335 -6.36685
lowerneck 3.2687 -0.261671 3.46353
upperneck -4.50141 -0.218721 -0.760095
head -1.97428 -0.154893 -0.82374
rclavicle 2.58172e-014 -3.97569e-015
rhumerus -18.4629 18.5267 -92.7643
rradius 40.4512
rwrist 19.1861
rhand -14.6649 -35.2414
rfingers 7.12502
rthumb 11.4879 -64.9066
lclavicle 2.58172e-014 -3.97569e-015
lhumerus -56.1392 20.3029 64.7801
lradius 19.6178
lwrist -17.1803
lhand -23.1106 12.8574
lfingers 7.12502
lthumb 3.33627 42.811
rfemur 30.2755 3.00081 29.8595
rtibia -6.36111e-014
rfoot -5.82491 12.6514
rtoes -31.7251
lfemur -32.9182 2.71583 -18.0105
ltibia 39.061
lfoot -5.85231 2.48548
ltoes -19.3772
56
root 26.0851 17.0444 1.60229 -30.6128 -101.123 29.4961
lowerback 8.79109 2.39753 8.83244
upperback 1.53392 3.93218 -0.572643
thorax -2.68169 1.86533 -5.97376
lowerneck 3.40095 -0.865736 3.00057
upperneck -4.85905 -1.00252 0.137633
head -2.12033 -0.565806 -0.438705
rclavicle 2.57923e-014 1.23246e-014
rhumerus -20.4623 16.2238 -93.3467
rradius 38.6715
rwrist 19.5057
rhand -15.6621 -33.9426
rfingers 7.12502
rthumb 10.5261 -63.659
lclavicle 2.57923e-014 1.23246e-014
lhumerus -54.6389 20.0951 65.3247
lradius 19.3976
lwrist -17.5962
lhand -23.0933 13.3907
lfingers 7.12502
lthumb 3.35301 43.344
rfemur 25.6413 2.80447 28.7129
rtibia 11.6707
rfoot -6.87548 12.9916
rtoes -34.0059
lfemur -32.2809 1.20631 -19.1616
ltibia 40.6056
lfoot -6.40825 2.83449
ltoes -16.921
57
root 25.676 17.019 1.56002 -27.8283 -100.08 26.5879
lowerback 8.33925 2.40895 7.46012
upperback 1.52842 3.78162 -0.884614
thorax -2.53137 1.81118 -5.4907
lowerneck 3.48543 -1.49945 2.43141
upperneck -5.14639 -1.82902 1.09248
head -2.22423 -0.998012 -0.0141334
rclavicle -5.01931e-014 9.54166e-015
rhumerus -22.2403 13.7345 -93.5559
rradius 36.5281
rwrist 19.7834
rhand -16.1783 -35.3319
rfingers 7.12502
rthumb 10.0282 -65.073
lclavicle -5.01931e-014 9.54166e-015
lhumerus -52.6994 20.1748 65.8328
lradius 19.1136
lwrist -18.6049
lhand -23.0729 13.146
lfingers 7.12502
lthumb 3.37266 43.099
rfemur 22.2055 2.85427 27.7199
rtibia 20.4546
rfoot -4.41953 13.7153
rtoes -35.7886
lfemur -31.4021 -0.164474 -20.3208
ltibia 41.8785
lfoot -7.52716 3.22308
ltoes -17.5123
